HIERARCHY
ROOT Hips
{
	OFFSET 0.00000 0.00000 0.00000
	CHANNELS 6 Xposition Yposition Zposition Zrotation Yrotation Xrotation 
	JOINT LHipJoint
	{
		OFFSET 0 0 0
		CHANNELS 3 Zrotation Yrotation Xrotation
		JOINT LeftUpLeg
		{
			OFFSET 1.36337 -1.57426 1.11036
			CHANNELS 3 Zrotation Yrotation Xrotation
			JOINT LeftLeg
			{
				OFFSET 2.38468 -6.55187 0.00000
				CHANNELS 3 Zrotation Yrotation Xrotation
				JOINT LeftFoot
				{
					OFFSET 2.37166 -6.51609 0.00000
					CHANNELS 3 Zrotation Yrotation Xrotation
					JOINT LeftToeBase
					{
						OFFSET 0.29078 -0.79891 2.01393
						CHANNELS 3 Zrotation Yrotation Xrotation
						End Site
						{
							OFFSET 0.00000 -0.00000 1.07924
						}
					}
				}
			}
		}
	}
	JOINT RHipJoint
	{
		OFFSET 0 0 0
		CHANNELS 3 Zrotation Yrotation Xrotation
		JOINT RightUpLeg
		{
			OFFSET -1.36349 -1.57426 1.11036
			CHANNELS 3 Zrotation Yrotation Xrotation
			JOINT RightLeg
			{
				OFFSET -2.29562 -6.30717 0.00000
				CHANNELS 3 Zrotation Yrotation Xrotation
				JOINT RightFoot
				{
					OFFSET -2.40985 -6.62100 0.00000
					CHANNELS 3 Zrotation Yrotation Xrotation
					JOINT RightToeBase
					{
						OFFSET -0.23197 -0.63733 1.92232
						CHANNELS 3 Zrotation Yrotation Xrotation
						End Site
						{
							OFFSET -0.00000 -0.00000 1.01562
						}
					}
				}
			}
		}
	}
	JOINT LowerBack
	{
		OFFSET 0 0 0
		CHANNELS 3 Zrotation Yrotation Xrotation
		JOINT Spine
		{
			OFFSET -0.08565 2.03602 -0.24562
			CHANNELS 3 Zrotation Yrotation Xrotation
			JOINT Spine1
			{
				OFFSET -0.00036 2.05693 0.00216
				CHANNELS 3 Zrotation Yrotation Xrotation
				JOINT Neck
				{
					OFFSET 0 0 0
					CHANNELS 3 Zrotation Yrotation Xrotation
					JOINT Neck1
					{
						OFFSET -0.03664 1.69515 0.31789
						CHANNELS 3 Zrotation Yrotation Xrotation
						JOINT Head
						{
							OFFSET 0.00932 1.70181 -0.46013
							CHANNELS 3 Zrotation Yrotation Xrotation
							End Site
							{
								OFFSET 0.01243 1.77620 -0.19377
							}
						}
					}
				}
				JOINT LeftShoulder
				{
					OFFSET 0 0 0
					CHANNELS 3 Zrotation Yrotation Xrotation
					JOINT LeftArm
					{
						OFFSET 3.74344 0.81315 -0.36647
						CHANNELS 3 Zrotation Yrotation Xrotation
						JOINT LeftForeArm
						{
							OFFSET 4.97185 -0.00000 -0.00000
							CHANNELS 3 Zrotation Yrotation Xrotation
							JOINT LeftHand
							{
								OFFSET 3.35811 -0.00000 0.00000
								CHANNELS 3 Zrotation Yrotation Xrotation
								JOINT LeftFingerBase
								{
									OFFSET 0 0 0
									CHANNELS 3 Zrotation Yrotation Xrotation
									JOINT LeftHandIndex1
									{
										OFFSET 0.62278 -0.00000 0.00000
										CHANNELS 3 Zrotation Yrotation Xrotation
										End Site
										{
											OFFSET 0.50210 -0.00000 0.00000
										}
									}
								}
								JOINT LThumb
								{
									OFFSET 0 0 0
									CHANNELS 3 Zrotation Yrotation Xrotation
									End Site
									{
										OFFSET 0.50976 -0.00000 0.50976
									}
								}
							}
						}
					}
				}
				JOINT RightShoulder
				{
					OFFSET 0 0 0
					CHANNELS 3 Zrotation Yrotation Xrotation
					JOINT RightArm
					{
						OFFSET -3.75385 0.50666 -0.06525
						CHANNELS 3 Zrotation Yrotation Xrotation
						JOINT RightForeArm
						{
							OFFSET -4.96493 -0.00000 -0.00000
							CHANNELS 3 Zrotation Yrotation Xrotation
							JOINT RightHand
							{
								OFFSET -3.34929 -0.00000 0.00000
								CHANNELS 3 Zrotation Yrotation Xrotation
								JOINT RightFingerBase
								{
									OFFSET 0 0 0
									CHANNELS 3 Zrotation Yrotation Xrotation
									JOINT RightHandIndex1
									{
										OFFSET -0.63804 -0.00000 0.00000
										CHANNELS 3 Zrotation Yrotation Xrotation
										End Site
										{
											OFFSET -0.51441 -0.00000 0.00000
										}
									}
								}
								JOINT RThumb
								{
									OFFSET 0 0 0
									CHANNELS 3 Zrotation Yrotation Xrotation
									End Site
									{
										OFFSET -0.52226 -0.00000 0.52226
									}
								}
							}
						}
					}
				}
			}
		}
	}
}
MOTION
Frames: 8
Frame Time: .0083333
-27.5978 16.5242 -0.2641 0 0 0 0 0 0 -21 0 0 0 0 0 0 0 0 0 0 0 0 0 0 21 0 0 0 0 0 0 0 0 0 0 0 0 0 0 0 0 0 0 0 0 0 0 -16 0 0 21 0 0 11 0 0 0 -8 0 0 0 0 0 0 0 0 0 0 0 0 0 0 0 0 0 0 0 0 8 0 0 0 0 0 0 0 0 0 0 0 0 0 0 0 0 0
-27.5978 16.5242 -0.2641 164.0510 75.0710 168.3620 0.0000 0.0000 0.0000 -22.6454 -8.8832 -5.6675 1.7910 8.4164 23.9862 1.4180 3.9416 -24.2161 0.0137 0.7568 2.0799 0.0000 0.0000 0.0000 12.8226 1.3126 -6.2527 -1.9276 -8.7137 24.9037 -2.5282 -13.4998 -37.2061 -0.9889 -6.3293 17.7431 -4.4390 1.4992 -8.0718 -1.1187 2.5545 1.8540 1.6618 1.1170 6.3385 17.2147 16.6241 -4.8258 -13.5662 26.5513 24.0188 -3.5191 12.7734 13.0191 0.0000 -0.0000 0.0000 -92.3539 -6.2613 26.0065 10.8705 -18.0895 -1.7355 -0.0000 0.0000 -2.8346 22.7875 -12.0158 -4.9983 -7.1250 0.0000 -0.0000 -3.0721 16.9917 2.0432 0.0000 -0.0000 0.0000 91.4518 2.6228 26.7900 -11.6649 19.3002 -1.9902 0.0000 -0.0000 -5.1694 -14.0081 -28.8219 6.8581 7.1250 -0.0000 -0.0000 18.8793 -58.5281 -6.3913
-27.5977 16.5269 -0.2639 164.2200 75.1091 168.5800 0.0000 0.0000 0.0000 -22.5803 -8.9262 -5.7430 1.7994 8.4351 24.0438 1.4124 4.0047 -24.2058 0.0124 0.7191 1.9762 0.0000 0.0000 0.0000 12.8819 1.4006 -6.2775 -1.9154 -8.6877 24.8231 -2.4938 -13.6607 -37.1454 -0.9995 -6.3620 17.8386 -4.4415 1.4614 -8.0808 -1.0712 2.4991 1.8034 1.7052 1.0902 6.2909 17.1414 16.5969 -4.6106 -13.7498 26.5761 23.8226 -3.5928 12.7850 12.9228 -0.0000 0.0000 0.0000 -93.4341 -9.4528 15.9000 7.4807 -12.7077 -0.8342 -0.0000 -0.0000 7.7552 27.5310 -12.6060 -6.4901 -7.1250 0.0000 -0.0000 0.1763 15.8253 -0.1215 -0.0000 0.0000 0.0000 91.4039 2.6905 26.6678 -11.5392 19.1100 -1.9488 0.0000 -0.0000 -4.9113 -13.8172 -28.2620 6.6424 7.1250 -0.0000 -0.0000 18.6989 -57.9568 -6.0684
-27.5978 16.5288 -0.2636 164.2270 75.1404 168.6540 0.0000 0.0000 0.0000 -22.5540 -8.9482 -5.8622 1.8129 8.4649 24.1352 1.4097 4.0292 -24.1974 0.0132 0.7420 2.0391 0.0000 0.0000 0.0000 12.8934 1.4375 -6.3178 -1.9019 -8.6586 24.7332 -2.4797 -13.7350 -37.1265 -0.9889 -6.3294 17.7433 -4.4481 1.4462 -8.1002 -1.0693 2.4783 1.7511 1.7080 1.0814 6.2474 17.1452 16.5811 -4.5927 -13.7466 26.5783 23.8906 -3.5927 12.7883 12.9476 -0.0000 -0.0000 0.0000 -93.4428 -9.9283 14.3860 6.8036 -11.5956 -0.6916 -0.0000 -0.0000 9.7324 31.4512 -10.5197 -6.3717 -7.1250 0.0000 -0.0000 3.0806 17.7103 -2.0004 -0.0000 -0.0000 0.0000 91.3855 2.6052 26.7010 -11.5674 19.1527 -1.9580 0.0000 -0.0000 -4.9339 -13.7506 -28.1390 6.5832 7.1250 -0.0000 -0.0000 18.6864 -57.8259 -6.0046
-27.5959 16.5276 -0.2617 164.4300 75.1486 168.8690 0.0000 0.0000 0.0000 -22.4736 -8.9109 -5.9469 1.8252 8.4921 24.2192 1.4128 3.9913 -24.2016 0.0134 0.7482 2.0563 0.0000 0.0000 0.0000 12.9798 1.5357 -6.2610 -1.8893 -8.6315 24.6492 -2.4730 -13.8898 -37.2040 -0.9539 -6.2196 17.4228 -4.3915 1.4126 -8.0915 -1.0846 2.4268 1.7190 1.6529 1.0598 6.2143 17.1896 16.5997 -4.5728 -13.7110 26.6046 23.9338 -3.5805 12.8060 12.9668 0.0000 0.0000 0.0000 -93.1682 -9.3091 17.7561 7.1056 -12.0929 -0.7536 -0.0000 -0.0000 7.8030 34.8162 -8.1442 -5.6266 -7.1250 0.0000 -0.0000 5.7012 20.1156 -3.4094 0.0000 0.0000 0.0000 91.4153 2.4946 26.8817 -11.6386 19.2605 -1.9815 0.0000 -0.0000 -5.0859 -13.7925 -28.2666 6.6312 7.1250 -0.0000 -0.0000 18.7275 -57.9557 -6.0776
-27.5920 16.5260 -0.2586 164.8320 75.1033 169.2090 0.0000 0.0000 0.0000 -22.3561 -8.8936 -5.9280 1.8365 8.5170 24.2956 1.4184 3.8770 -24.1858 0.0138 0.7588 2.0853 0.0000 0.0000 0.0000 13.1368 1.6765 -6.0781 -1.8785 -8.6083 24.5775 -2.4801 -14.0824 -37.3797 -0.9508 -6.2095 17.3936 -4.3385 1.3783 -8.0493 -1.0744 2.3723 1.7212 1.6256 1.0350 6.1972 17.2211 16.6171 -4.4721 -13.7285 26.6302 23.8592 -3.5948 12.8257 12.9294 -0.0000 0.0000 0.0000 -92.8397 -7.9773 23.2237 7.9235 -13.4288 -0.9343 -0.0000 -0.0000 4.4681 37.9270 -5.6663 -4.3995 -7.1250 0.0000 -0.0000 8.2342 22.8301 -4.4388 -0.0000 0.0000 0.0000 91.4465 2.4684 26.9657 -11.6425 19.2664 -1.9828 0.0000 -0.0000 -5.1928 -14.1447 -28.2303 6.7979 7.1250 -0.0000 -0.0000 18.3390 -57.9978 -5.9645
-27.5917 16.5249 -0.2561 165.0380 75.0949 169.4050 0.0000 0.0000 0.0000 -22.2943 -8.9714 -5.9176 1.8451 8.5357 24.3534 1.4211 3.8339 -24.1850 0.0153 0.7993 2.1966 0.0000 0.0000 0.0000 13.2268 1.7770 -5.9969 -1.8697 -8.5892 24.5185 -2.4829 -14.1883 -37.4709 -0.9725 -6.2781 17.5935 -4.3608 1.3747 -8.0526 -1.0350 2.3674 1.7310 1.6789 1.0304 6.2072 17.1037 16.6468 -4.4285 -13.6279 26.6461 23.8118 -3.5475 12.8356 12.8675 0.0000 -0.0000 0.0000 -92.0361 -4.9373 31.7769 10.2338 -17.1045 -1.5430 -0.0000 -0.0000 0.5269 36.9640 -1.3345 -1.0041 -7.1250 0.0000 -0.0000 8.0373 28.2755 -3.3008 0.0000 -0.0000 0.0000 91.4011 2.5158 27.0008 -11.6043 19.2086 -1.9702 0.0000 -0.0000 -5.3699 -14.7633 -27.7679 6.9994 7.1250 -0.0000 -0.0000 17.3988 -57.6905 -5.5162
-27.5921 16.5255 -0.2552 165.1180 75.0897 169.5070 0.0000 0.0000 0.0000 -22.2639 -9.0225 -5.9444 1.8504 8.5472 24.3887 1.4216 3.8001 -24.1715 0.0153 0.7977 2.1923 0.0000 0.0000 0.0000 13.2591 1.7797 -5.9972 -1.8630 -8.5746 24.4735 -2.4695 -14.2418 -37.4421 -0.9800 -6.3016 17.6621 -4.3654 1.3543 -8.0667 -1.0183 2.3396 1.7152 1.6955 1.0164 6.1992 16.9469 16.6659 -4.5048 -13.4101 26.6340 23.9269 -3.4480 12.8293 12.8628 -0.0000 0.0000 0.0000 -92.1726 -5.0754 30.1033 10.0536 -16.8234 -1.4904 -0.0000 -0.0000 3.4302 15.3964 -3.1968 -0.8798 -7.1250 0.0000 -0.0000 -8.5297 26.6428 3.8389 -0.0000 0.0000 0.0000 91.3547 2.4738 27.2103 -11.6203 19.2328 -1.9754 0.0000 -0.0000 -5.6498 -15.0443 -27.3935 7.0497 7.1250 -0.0000 -0.0000 16.8742 -57.3915 -5.2208
